<svg xmlns="http://www.w3.org/2000/svg" viewBox="0 0 279.525 279.525" style="enable-background:new 0 0 279.525 279.525" xml:space="preserve"><path d="M165.066 1.544c-29.272 0-56.007 11.05-76.268 29.191a47.719 47.719 0 0 1 7.287 24.042l.001.025.001.025c.102 3.867.333 7.735.664 11.597 15.368-21.117 40.258-34.88 68.315-34.88 46.571 0 84.459 37.888 84.459 84.459 0 46.08-37.098 83.634-82.994 84.422a196.54 196.54 0 0 0 12.976 9.974l.02.015.021.014a47.78 47.78 0 0 1 14.483 16.317c49.133-12.861 85.493-57.633 85.493-110.742C279.525 52.89 228.18 1.544 165.066 1.544zm-2.81 233.398c-13.076-10.438-21.234-17.389-32.909-28.204-3.435-3.182-7.633-5.164-11.944-5.164-3.299 0-6.557 1.051-9.239 3.252l-8.305 6.989a252.097 252.097 0 0 1-49.027-91.431l10.417-3.049c7.652-2.343 11.252-10.512 10.129-18.701-2.443-17.824-3.77-26.679-5.282-43.018-.775-8.375-6.349-15.65-14.338-16.085a38.573 38.573 0 0 0-3.726-.181c-29.71 0-55.578 34.436-46.009 76.564a298.222 298.222 0 0 0 74.551 139.031c15.102 15.856 33.603 23.036 50.312 23.036 17.627 0 33.261-7.984 40.833-22.195 4.059-6.895 1.111-15.596-5.463-20.844z"/><path d="M130.645 118.121c-7.912 7.341-13.089 13.113-15.823 17.643-1.93 3.195-3.338 6.573-4.187 10.04a5.404 5.404 0 0 0 1.007 4.649 5.406 5.406 0 0 0 4.276 2.079h37.758c4.626 0 8.39-3.764 8.39-8.39 0-4.626-3.764-8.39-8.39-8.39h-17.051c.139-.164.282-.328.428-.493 1.114-1.254 3.842-3.874 8.107-7.785 4.473-4.105 7.493-7.179 9.232-9.398 2.621-3.336 4.571-6.593 5.794-9.679 1.247-3.145 1.88-6.498 1.88-9.967 0-6.224-2.254-11.507-6.699-15.705-4.416-4.164-10.495-6.274-18.071-6.274-6.884 0-12.731 1.802-17.377 5.356-2.803 2.146-4.961 5.119-6.415 8.839a8.727 8.727 0 0 0 .68 7.689 8.72 8.72 0 0 0 7.428 4.15 8.884 8.884 0 0 0 8.387-5.979c.388-1.121.901-2.012 1.527-2.65 1.318-1.343 3.093-1.997 5.428-1.997 2.373 0 4.146.618 5.418 1.889 1.269 1.269 1.886 3.12 1.886 5.66 0 2.359-.843 4.819-2.505 7.314-.891 1.306-3.554 4.361-11.108 11.399zm75.59-41.67h-6.307a5.434 5.434 0 0 0-4.489 2.37l-29.168 42.698a7.44 7.44 0 0 0-1.301 4.212v6.919a5.443 5.443 0 0 0 5.436 5.436h23.945v5.787c0 4.775 3.885 8.66 8.66 8.66s8.66-3.885 8.66-8.66v-5.787h.865c4.437 0 8.047-3.61 8.047-8.047 0-4.437-3.61-8.047-8.047-8.047h-.865V81.887a5.443 5.443 0 0 0-5.436-5.436zm-11.883 45.541h-10.748l10.748-15.978v15.978z"/></svg>